<svg width="48" height="48" viewBox="0 0 48 48" fill="none" xmlns="http://www.w3.org/2000/svg">
<circle cx="24" cy="24" r="24" fill="#FFC414"/>
<path d="M18.25 24C18.25 25.2426 17.2426 26.25 16 26.25C14.7574 26.25 13.75 25.2426 13.75 24C13.75 22.7574 14.7574 21.75 16 21.75C17.2426 21.75 18.25 22.7574 18.25 24ZM26.25 24C26.25 25.2426 25.2426 26.25 24 26.25C22.7574 26.25 21.75 25.2426 21.75 24C21.75 22.7574 22.7574 21.75 24 21.75C25.2426 21.75 26.25 22.7574 26.25 24ZM32 26.25C33.2426 26.25 34.25 25.2426 34.25 24C34.25 22.7574 33.2426 21.75 32 21.75C30.7574 21.75 29.75 22.7574 29.75 24C29.75 25.2426 30.7574 26.25 32 26.25Z" fill="white"/>
</svg>
