<svg width="32" height="32" viewBox="0 0 32 32" fill="none" xmlns="http://www.w3.org/2000/svg">
<g clip-path="url(#clip0_17816_14771)">
<g opacity="0.38">
<path d="M5.92316 16.8772C5.7745 16.7284 5.70116 16.5543 5.70316 16.355C5.705 16.1556 5.7835 15.9784 5.93866 15.8232C6.09383 15.6784 6.2695 15.6034 6.46566 15.5982C6.66166 15.5932 6.83725 15.6682 6.99241 15.8232L10.7157 19.5465L10.9657 19.2965C11.063 19.3426 11.1652 19.4 11.2724 19.4685C11.3794 19.5371 11.4848 19.6234 11.5887 19.7272C11.7438 19.8822 11.8188 20.0578 11.8137 20.254C11.8085 20.4501 11.7283 20.6258 11.5732 20.781L11.3329 21.0215C11.1521 21.192 10.9412 21.2797 10.7002 21.2847C10.4592 21.2899 10.2482 21.2021 10.0674 21.0215L5.92316 16.8772ZM16.3502 19.531L25.0232 10.858C25.172 10.7093 25.3461 10.6359 25.5454 10.6377C25.7447 10.6397 25.922 10.7182 26.0772 10.8732C26.222 11.0284 26.297 11.2041 26.3022 11.4002C26.3072 11.5964 26.2322 11.7721 26.0772 11.9272L16.9829 21.0215C16.8021 21.2021 16.5912 21.2925 16.3502 21.2925C16.1092 21.2925 15.8982 21.2021 15.7174 21.0215L11.5732 16.8772C11.4348 16.7387 11.364 16.5672 11.3607 16.3627C11.3575 16.1582 11.4283 15.9784 11.5732 15.8232C11.7283 15.6682 11.9066 15.5907 12.1079 15.5907C12.3091 15.5907 12.4872 15.6682 12.6424 15.8232L16.3502 19.531ZM20.4117 11.9425L16.5309 15.8232C16.3924 15.9617 16.2209 16.0326 16.0164 16.0357C15.8119 16.0391 15.6322 15.9682 15.4772 15.8232C15.322 15.6682 15.2444 15.4901 15.2444 15.2887C15.2444 15.0874 15.322 14.9092 15.4772 14.7542L19.3579 10.8732C19.4964 10.7349 19.6678 10.6641 19.8722 10.6607C20.0767 10.6576 20.2565 10.7284 20.4117 10.8732C20.5668 11.0284 20.6444 11.2066 20.6444 11.408C20.6444 11.6091 20.5668 11.7873 20.4117 11.9425Z" fill="#1B1A19"/>
</g>
</g>
<defs>
<clipPath id="clip0_17816_14771">
<path d="M4 16C4 9.37258 9.37258 4 16 4C22.6274 4 28 9.37258 28 16C28 22.6274 22.6274 28 16 28C9.37258 28 4 22.6274 4 16Z" fill="white"/>
</clipPath>
</defs>
</svg>
