<svg width="48" height="48" viewBox="0 0 48 48" fill="none" xmlns="http://www.w3.org/2000/svg">
<mask id="mask0_8286_572" style="mask-type:luminance" maskUnits="userSpaceOnUse" x="0" y="0" width="48" height="48">
<path d="M0 0H48V48H0V0Z" fill="white"/>
</mask>
<g mask="url(#mask0_8286_572)">
<path d="M7.03047 40.97C9.25239 43.2284 11.8995 45.0245 14.819 46.2548C17.7386 47.485 20.8728 48.1251 24.0409 48.138C27.2091 48.1509 30.3484 47.5364 33.2779 46.3299C36.2074 45.1235 38.869 43.349 41.1092 41.1087C43.3495 38.8685 45.124 36.2069 46.3304 33.2774C47.5369 30.348 48.1514 27.2086 48.1385 24.0405C48.1256 20.8723 47.4855 17.7381 46.2553 14.8185C45.025 11.899 43.2289 9.2519 40.9705 7.02998C36.4572 2.58966 30.3722 0.112602 24.0409 0.138383C17.7097 0.164163 11.645 2.69069 7.16811 7.16762C2.69118 11.6446 0.164652 17.7092 0.138871 24.0405C0.113091 30.3717 2.59014 36.4567 7.03047 40.97Z" fill="url(#paint0_linear_8286_572)"/>
<path d="M9.99043 23.8L26.1504 17.13C27.7504 16.43 33.1504 14.22 33.1504 14.22C33.1504 14.22 35.6504 13.25 35.4504 15.61C35.3804 16.58 34.8204 19.98 34.2704 23.65L32.5304 34.55C32.5304 34.55 32.3904 36.14 31.2104 36.42C30.0304 36.69 28.0904 35.45 27.7504 35.17C27.4704 34.96 22.5504 31.84 20.7404 30.31C20.2504 29.9 19.7004 29.06 20.8104 28.09C23.3104 25.8 26.2904 22.96 28.0904 21.16C28.9304 20.32 29.7604 18.38 26.2904 20.74L16.5104 27.33C16.5104 27.33 15.4004 28.03 13.3104 27.4C11.2404 26.77 8.81043 25.94 8.81043 25.94C8.81043 25.94 7.14043 24.9 9.99043 23.8Z" fill="white"/>
</g>
<defs>
<linearGradient id="paint0_linear_8286_572" x1="40.9705" y1="7.02998" x2="7.03047" y2="40.97" gradientUnits="userSpaceOnUse">
<stop stop-color="#37AEE2"/>
<stop offset="1" stop-color="#1E96C8"/>
</linearGradient>
</defs>
</svg>
