<svg width="48" height="48" viewBox="0 0 48 48" fill="none" xmlns="http://www.w3.org/2000/svg">
<circle cx="24" cy="24" r="24" fill="white"/>
<path fill-rule="evenodd" clip-rule="evenodd" d="M24 10C16.1134 10 10 15.777 10 23.58C10 27.6615 11.6727 31.1884 14.3968 33.6244C14.6255 33.8291 14.7635 34.1158 14.7729 34.4227L14.8491 36.913C14.8735 37.7074 15.694 38.2243 16.4209 37.9034L19.1997 36.6767C19.4352 36.5728 19.6992 36.5535 19.9474 36.6218C21.2244 36.973 22.5834 37.16 24 37.16C31.8866 37.16 38 31.383 38 23.58C38 15.777 31.8866 10 24 10Z" fill="url(#paint0_radial_8286_564)"/>
<path fill-rule="evenodd" clip-rule="evenodd" d="M15.5934 27.5514L19.7059 21.0268C20.3601 19.9888 21.7609 19.7304 22.7425 20.4665L26.0133 22.9197C26.3135 23.1448 26.7264 23.1436 27.0252 22.9168L31.4427 19.5642C32.0323 19.1168 32.8019 19.8224 32.4074 20.4486L28.2949 26.9732C27.6407 28.0111 26.2398 28.2696 25.2583 27.5334L21.9874 25.0802C21.6873 24.8551 21.2744 24.8563 20.9755 25.0831L16.558 28.4357C15.9684 28.8831 15.1988 28.1775 15.5934 27.5514Z" fill="white"/>
<defs>
<radialGradient id="paint0_radial_8286_564" cx="0" cy="0" r="1" gradientUnits="userSpaceOnUse" gradientTransform="translate(15.3893 37.8502) scale(30.5087 30.5086)">
<stop stop-color="#0099FF"/>
<stop offset="0.609754" stop-color="#A033FF"/>
<stop offset="0.934823" stop-color="#FF5280"/>
<stop offset="1" stop-color="#FF7061"/>
</radialGradient>
</defs>
</svg>
