<svg width="48" height="48" viewBox="0 0 48 48" fill="none" xmlns="http://www.w3.org/2000/svg">
<mask id="mask0_8286_2070" style="mask-type:luminance" maskUnits="userSpaceOnUse" x="0" y="0" width="48" height="48">
<path d="M0 0H48V48H0V0Z" fill="white"/>
</mask>
<g mask="url(#mask0_8286_2070)">
<path fill-rule="evenodd" clip-rule="evenodd" d="M24 48C30.3652 48 36.4697 45.4714 40.9706 40.9706C45.4714 36.4697 48 30.3652 48 24C48 17.6348 45.4714 11.5303 40.9706 7.02944C36.4697 2.52856 30.3652 0 24 0C17.6348 0 11.5303 2.52856 7.02944 7.02944C2.52856 11.5303 0 17.6348 0 24C0 30.3652 2.52856 36.4697 7.02944 40.9706C11.5303 45.4714 17.6348 48 24 48Z" fill="#25D366"/>
<path fill-rule="evenodd" clip-rule="evenodd" d="M29.96 26.58C29.63 26.42 28.04 25.64 27.75 25.53C27.45 25.43 27.23 25.37 27.02 25.69C26.8 26.02 26.18 26.74 25.99 26.96C25.81 27.17 25.62 27.2 25.29 27.04C24.97 26.88 23.93 26.54 22.69 25.44C21.9829 24.7899 21.3763 24.0384 20.89 23.21C20.7 22.89 20.87 22.71 21.03 22.55C21.18 22.41 21.36 22.18 21.52 21.99C21.68 21.8 21.74 21.67 21.84 21.45C21.95 21.24 21.9 21.05 21.82 20.89C21.74 20.73 21.09 19.14 20.82 18.49C20.56 17.87 20.29 17.95 20.09 17.94H19.47C19.26 17.94 18.91 18.01 18.61 18.34C18.31 18.66 17.48 19.44 17.48 21.02C17.48 22.61 18.64 24.14 18.8 24.35C18.96 24.57 21.08 27.82 24.32 29.21C25.09 29.54 25.7 29.74 26.17 29.89C26.94 30.14 27.65 30.1 28.2 30.02C28.83 29.92 30.12 29.24 30.39 28.49C30.66 27.74 30.66 27.09 30.58 26.96C30.5 26.82 30.28 26.74 29.96 26.58ZM24.06 34.6C21.94 34.6 19.98 33.94 18.18 32.88L14.11 33.94L15.2 29.99C13.9941 28.1813 13.3345 26.0636 13.3 23.89C13.3 21.039 14.4326 18.3047 16.4486 16.2886C18.4646 14.2726 21.1989 13.14 24.05 13.14C26.9011 13.14 29.6354 14.2726 31.6514 16.2886C33.6674 18.3047 34.8 21.039 34.8 23.89C34.8 29.79 29.97 34.6 24.04 34.6H24.06ZM24.06 11C20.6342 10.9921 17.3453 12.3439 14.9154 14.7588C12.4855 17.1737 11.1132 20.4543 11.1 23.88C11.1 26.15 11.7 28.37 12.83 30.32L11 37L17.86 35.2C19.7595 36.2342 21.8873 36.7773 24.05 36.78C31.1 36.78 37 30.9 37 23.89C37 16.84 31.09 11 24.05 11H24.06Z" fill="white"/>
</g>
</svg>
