<svg width="151" height="151" viewBox="0 0 151 151" fill="none" xmlns="http://www.w3.org/2000/svg">
<path opacity="0.5" d="M118.093 46.5622C118.499 47.0324 118.897 47.5155 119.286 48.0028C122.599 52.1621 125.228 56.6421 127.181 61.3144C127.186 61.3229 127.19 61.3315 127.19 61.34C136.599 83.8465 130.426 110.739 110.407 126.701C86.2251 145.98 50.9927 142.004 31.7136 117.822C13.4348 94.8925 16.0595 62.0282 36.9972 42.249C36.9972 42.249 36.9972 42.2404 37.0057 42.2404C38.1471 41.1632 39.3397 40.1202 40.5922 39.1242L40.605 39.1156C46.1152 33.6354 49.4538 26.6547 50.4882 19.362C50.4882 18.9773 50.5182 18.5926 50.578 18.1993C50.6037 18.0069 50.6421 17.8188 50.6892 17.635C51.5911 13.6723 55.3871 11.0177 59.4652 11.5734C59.5592 11.5863 59.649 11.6034 59.7388 11.6162C81.3904 14.9847 101.883 26.176 116.619 44.6599C117.119 45.2883 117.615 45.921 118.093 46.5622Z" fill="#0D0D0C"/>
<path d="M84.0833 116.946C103.324 116.946 118.922 101.348 118.922 82.1068C118.922 62.8656 103.324 47.2676 84.0833 47.2676C64.8422 47.2676 49.2441 62.8656 49.2441 82.1068C49.2441 101.348 64.8422 116.946 84.0833 116.946Z" fill="white"/>
<path opacity="0.5" d="M60.5 88.4749C60.5 86.27 63.1658 85.1658 64.7249 86.7249L65.0453 87.0453C75.7898 97.7898 93.2102 97.7898 103.955 87.0453L104.275 86.7249C105.834 85.1658 108.5 86.27 108.5 88.4749C108.5 89.1313 108.239 89.7607 107.775 90.2249L106.42 91.5797C94.3141 103.686 74.6859 103.686 62.5797 91.5797L61.2249 90.2249C60.7607 89.7607 60.5 89.1313 60.5 88.4749Z" fill="#0D0D0C"/>
</svg>
