<svg width="48" height="48" viewBox="0 0 48 48" fill="none" xmlns="http://www.w3.org/2000/svg">
<circle cx="24" cy="24" r="24" fill="#FFC414"/>
<g clip-path="url(#clip0_8286_546)">
<path d="M17.6364 21.8787C18.0269 21.4882 18.6601 21.4882 19.0506 21.8787C19.4133 22.2413 19.4392 22.8132 19.1283 23.2057L19.0506 23.2929L16.9293 25.4142C15.3672 26.9763 15.3672 29.509 16.9293 31.0711C18.4441 32.5859 20.8715 32.6318 22.4415 31.2088L22.5862 31.0711L24.7075 28.9498C25.098 28.5593 25.7312 28.5593 26.1217 28.9498C26.4843 29.3124 26.5102 29.8843 26.1994 30.2768L26.1217 30.364L24.0004 32.4853C21.6572 34.8285 17.8582 34.8285 15.5151 32.4853C13.2252 30.1954 13.1732 26.5151 15.359 24.162L15.5151 24L17.6364 21.8787ZM24.0004 15.5148C26.3435 13.1716 30.1425 13.1716 32.4857 15.5148C34.7756 17.8046 34.8276 21.485 32.6418 23.8381L32.4857 24L30.3643 26.1214C29.9738 26.5119 29.3407 26.5119 28.9501 26.1214C28.5875 25.7587 28.5616 25.1869 28.8724 24.7944L28.9501 24.7071L31.0715 22.5858C32.6335 21.0237 32.6335 18.4911 31.0715 16.929C29.5567 15.4142 27.1293 15.3683 25.5592 16.7913L25.4146 16.929L23.2933 19.0503C22.9028 19.4408 22.2696 19.4408 21.8791 19.0503C21.5164 18.6877 21.4905 18.1158 21.8014 17.7233L21.8791 17.6361L24.0004 15.5148ZM19.0506 27.5356L27.5359 19.0503C27.9264 18.6598 28.5596 18.6598 28.9501 19.0503C29.3128 19.4129 29.3387 19.9848 29.0278 20.3773L28.9501 20.4645L20.4648 28.9498C20.0743 29.3403 19.4412 29.3403 19.0506 28.9498C18.688 28.5872 18.6621 28.0153 18.9729 27.6228L19.0506 27.5356L27.5359 19.0503L19.0506 27.5356Z" fill="white"/>
</g>
<defs>
<clipPath id="clip0_8286_546">
<rect width="28" height="28" fill="white" transform="translate(4.20117 24) rotate(-45)"/>
</clipPath>
</defs>
</svg>
