<svg width="48" height="48" viewBox="0 0 48 48" fill="none" xmlns="http://www.w3.org/2000/svg">
<circle cx="24" cy="24" r="24" fill="url(#paint0_linear_8286_2078)"/>
<path fill-rule="evenodd" clip-rule="evenodd" d="M38 14.7207C36.9712 15.184 35.862 15.4953 34.6992 15.6366C35.8864 14.9195 36.7973 13.7801 37.2272 12.4247C36.118 13.0909 34.8877 13.5747 33.5786 13.8335C32.5295 12.704 31.0376 12 29.3856 12C26.2115 12 23.6388 14.6007 23.6388 17.8077C23.6388 18.2603 23.6908 18.7064 23.7899 19.1294C19.0143 18.8855 14.7798 16.5755 11.947 13.0613C11.4538 13.9214 11.171 14.9195 11.171 15.98C11.171 17.9966 12.1818 19.7743 13.7266 20.8142C12.7856 20.7855 11.8983 20.5234 11.1222 20.0889V20.1628C11.1222 22.9771 13.1033 25.3224 15.7313 25.8572C15.2486 25.987 14.7407 26.0576 14.2207 26.0576C13.8493 26.0576 13.4893 26.0239 13.1383 25.9566C13.8696 28.264 15.9922 29.9406 18.5047 29.9866C16.5382 31.5433 14.0622 32.4732 11.3709 32.4732C10.9061 32.4732 10.4469 32.4461 10 32.3911C12.541 34.0373 15.5615 35 18.807 35C29.3758 35 35.1543 26.1529 35.1543 18.478C35.1543 18.2275 35.1461 17.9761 35.1372 17.7288C36.257 16.9115 37.2305 15.8888 38 14.7207Z" fill="white"/>
<defs>
<linearGradient id="paint0_linear_8286_2078" x1="0" y1="0" x2="0" y2="48" gradientUnits="userSpaceOnUse">
<stop stop-color="#55ACEE"/>
<stop offset="1" stop-color="#3B88C4"/>
</linearGradient>
</defs>
</svg>
