<svg width="49" height="48" viewBox="0 0 49 48" fill="none" xmlns="http://www.w3.org/2000/svg">
<g clip-path="url(#clip0_8286_555)">
<mask id="mask0_8286_555" style="mask-type:luminance" maskUnits="userSpaceOnUse" x="0" y="0" width="49" height="48">
<path d="M0.5 0H48.5V48H0.5V0Z" fill="white"/>
</mask>
<g mask="url(#mask0_8286_555)">
<path d="M24.5 48C37.7548 48 48.5 37.2548 48.5 24C48.5 10.7452 37.7548 0 24.5 0C11.2452 0 0.5 10.7452 0.5 24C0.5 37.2548 11.2452 48 24.5 48Z" fill="white"/>
<path d="M28.2503 47.7C34.2145 46.7539 39.6028 43.5943 43.3405 38.8513C47.0782 34.1083 48.8906 28.1306 48.4161 22.1105C47.9416 16.0904 45.2151 10.4705 40.7805 6.37164C36.3458 2.2728 30.529 -0.00366211 24.4903 -0.00366211C18.4515 -0.00366211 12.6347 2.2728 8.2001 6.37164C3.76547 10.4705 1.03899 16.0904 0.564484 22.1105C0.089982 28.1306 1.90234 34.1083 5.64005 38.8513C9.37777 43.5943 14.7661 46.7539 20.7303 47.7V31.15H14.6003V24.17H20.7303C20.7303 24.17 20.7003 20.19 20.7303 18.42C20.7603 16.65 21.1103 14.95 22.0303 13.39C23.4303 10.99 25.6103 9.81997 28.2903 9.48997C30.5603 9.19998 32.9603 9.45998 35.2103 9.88998V15.85L34.5303 15.83C33.5103 15.8 32.2103 15.76 31.2903 15.9C29.3903 16.2 28.2903 17.42 28.2603 19.34C28.2203 20.84 28.2403 24.17 28.2403 24.17H34.9303L33.8403 31.15H28.2403V47.72L28.2503 47.7Z" fill="#0075FA"/>
</g>
</g>
<defs>
<clipPath id="clip0_8286_555">
<rect width="48" height="48" fill="white" transform="translate(0.5)"/>
</clipPath>
</defs>
</svg>
