<svg width="195" height="213" viewBox="0 0 195 213" fill="none" xmlns="http://www.w3.org/2000/svg">
<path d="M12.4996 174.529C9.29959 170.129 16.4996 167.029 20.4996 166.029L42 159.029L78 148.029C100.167 148.529 148 150.829 162 156.029C179.5 162.529 174 164.029 169 169.029C164 174.029 153 181.029 137.5 185.529C122 190.029 127 191.529 116 198.029C105 204.529 95 211.529 80 212.029C65 212.529 63 205.029 50.5 194.529C38 184.029 16.4996 180.029 12.4996 174.529Z" fill="#DFDFDF"/>
<path d="M61.1631 161.946C61.5668 162.122 62.0331 162.076 62.3779 161.803C70.0659 155.708 76.0054 139.451 85.534 138.203L23.1022 109.007C8.85761 116.786 4.57019 128.033 0.901011 133.733C0.46427 134.411 0.705153 135.343 1.44074 135.675L23.1022 145.439L61.1631 161.946Z" fill="#EEFAFF"/>
<path d="M85.534 138.203C76.0054 139.451 70.0659 155.708 62.3779 161.803C62.0331 162.076 61.5668 162.122 61.1631 161.946L23.1022 145.439V172.012C23.1022 172.799 23.5331 173.522 24.2248 173.897L85.534 207.112V155.452V138.203Z" fill="#D5F2FF"/>
<path d="M104.297 145.439L128.519 158.421C141.715 150.449 155.393 142.563 167.402 136.798V104.043L104.016 130.491L104.297 145.439Z" fill="#D5F2FF"/>
<path d="M192.62 127.991C193.623 127.882 194.21 126.732 193.603 125.927C189.165 120.048 179.619 109.364 167.402 104.043V136.798C177.368 132.014 186.184 128.691 192.62 127.991Z" fill="#D5F2FF"/>
<path d="M100.643 147.389L104.297 145.439L104.016 130.491L85.534 138.203C89.0783 139.828 94.8003 143.062 100.643 147.389Z" fill="#D5F2FF"/>
<path d="M100.643 147.389C106.75 151.912 112.988 157.63 117.009 163.955C117.385 164.546 118.166 164.741 118.762 164.374C121.962 162.405 125.225 160.411 128.519 158.421L104.297 145.439L100.643 147.389Z" fill="#D5F2FF"/>
<path d="M85.534 207.112L167.402 163.781L128.519 158.421C125.225 160.411 121.962 162.405 118.762 164.374C118.166 164.741 117.385 164.546 117.009 163.955C112.988 157.63 106.75 151.912 100.643 147.389L85.534 155.452V207.112Z" fill="#BDE5F7"/>
<path d="M128.519 158.421L167.402 163.781V136.798C155.393 142.563 141.715 150.449 128.519 158.421Z" fill="#BDE5F7"/>
<path d="M100.643 147.389C94.8003 143.062 89.0783 139.828 85.534 138.203V155.452L100.643 147.389Z" fill="#BDE5F7"/>
<path d="M167.402 104.043L102.951 73.8369L104.016 130.491L167.402 104.043Z" fill="#97CEE7"/>
<path d="M23.1022 109.007L85.534 138.203L104.016 130.491L102.951 73.8369L23.1022 109.007Z" fill="#85A8B8"/>
<mask id="mask0_17008_1159" style="mask-type:alpha" maskUnits="userSpaceOnUse" x="23" y="0" width="145" height="139">
<path d="M23.1016 109.007L85.5334 138.203L104.016 130.491V0.946289L47.5 59.9995L23.1016 109.007Z" fill="#434343"/>
<path d="M167.402 104.043L104.016 0.946289V130.491L167.402 104.043Z" fill="#A8A8A8"/>
</mask>
<g mask="url(#mask0_17008_1159)">
<path d="M146.462 99.2601C146.509 99.8459 146.542 100.437 146.566 101.026C146.767 106.05 146.266 110.932 145.142 115.579C145.14 115.588 145.139 115.597 145.134 115.603C139.715 137.988 119.938 154.916 95.7057 155.743C66.435 156.74 41.7478 133.86 40.5648 104.639C39.4436 76.927 59.8555 53.4664 86.9255 50.2638C86.9255 50.2638 86.9302 50.2573 86.9368 50.2621C88.412 50.0881 89.9073 49.9689 91.4219 49.9192L91.4365 49.9199C98.7151 48.8676 105.175 45.4523 110.05 40.5011C110.265 40.2092 110.504 39.9341 110.77 39.6693C110.897 39.5378 111.032 39.4168 111.171 39.3038C114.079 36.8051 118.466 36.9306 121.27 39.6515C121.305 39.6853 121.338 39.7193 121.37 39.7529C121.399 39.7817 121.426 39.8103 121.455 39.8382C136.108 54.6013 145.494 74.6479 146.397 96.9826C146.428 97.7415 146.452 98.5012 146.459 99.2577L146.462 99.2601Z" fill="#FFC414"/>
<path d="M146.462 99.2601C146.509 99.8459 146.542 100.437 146.566 101.026C146.767 106.05 146.266 110.932 145.142 115.579C145.14 115.588 145.139 115.597 145.134 115.603C139.715 137.988 119.938 154.916 95.7057 155.743C66.435 156.74 41.7478 133.86 40.5648 104.639C39.4436 76.927 59.8555 53.4664 86.9255 50.2638C86.9255 50.2638 86.9302 50.2573 86.9368 50.2621C88.412 50.0881 89.9073 49.9689 91.4219 49.9192L91.4365 49.9199C98.7151 48.8676 105.175 45.4523 110.05 40.5011C110.265 40.2092 110.504 39.9341 110.77 39.6693C110.897 39.5378 111.032 39.4168 111.171 39.3038C114.079 36.8051 118.466 36.9306 121.27 39.6515C121.305 39.6853 121.338 39.7193 121.37 39.7529C121.399 39.7817 121.426 39.8103 121.455 39.8382C136.108 54.6013 145.494 74.6479 146.397 96.9826C146.428 97.7415 146.452 98.5012 146.459 99.2577L146.462 99.2601Z" stroke="black"/>
<path fill-rule="evenodd" clip-rule="evenodd" d="M145.142 115.579C146.266 110.932 146.767 106.05 146.566 101.026C146.542 100.437 146.509 99.8459 146.462 99.2601L146.459 99.2577C146.452 98.5012 146.428 97.7415 146.397 96.9826C145.494 74.6479 136.108 54.6013 121.455 39.8382C121.426 39.8103 121.399 39.7817 121.37 39.7529C121.338 39.7193 121.305 39.6853 121.27 39.6515C118.466 36.9306 114.079 36.8051 111.171 39.3038C111.032 39.4168 110.897 39.5378 110.77 39.6693C110.504 39.9341 110.265 40.2092 110.05 40.5011C105.175 45.4523 98.7151 48.8676 91.4365 49.9199L91.4219 49.9192C89.9073 49.9689 88.412 50.0881 86.9368 50.2621C86.9302 50.2573 86.9255 50.2638 86.9255 50.2638C59.8555 53.4664 39.4436 76.927 40.5648 104.639C41.7478 133.86 66.435 156.74 95.7057 155.743C119.938 154.916 139.715 137.988 145.134 115.603C145.139 115.597 145.14 115.588 145.142 115.579ZM95.6519 154.164C119.16 153.362 138.343 136.942 143.598 115.232L143.673 114.922L143.675 114.92C144.717 110.501 145.179 105.864 144.988 101.09C144.974 100.758 144.957 100.427 144.937 100.098L144.886 100.06L144.879 99.2715C144.872 98.539 144.849 97.7982 144.819 97.0465C143.932 75.126 134.723 55.4515 120.34 40.9572C120.301 40.9193 120.265 40.8821 120.24 40.8565L120.232 40.8487C120.202 40.8172 120.185 40.7998 120.17 40.7853M143.585 115.313C143.583 115.32 143.584 115.314 143.587 115.3L143.585 115.313ZM95.6519 154.164C67.2472 155.132 43.2911 132.926 42.1433 104.575C41.0558 77.6955 60.8527 54.9393 87.1111 51.8326L87.294 51.811C88.6517 51.655 90.0231 51.5477 91.4083 51.5003L91.5102 51.5055L91.6625 51.4835C99.293 50.3802 106.066 46.799 111.176 41.6095L111.254 41.5295L111.321 41.4392C111.487 41.2146 111.672 40.9999 111.884 40.7891L111.895 40.7787L111.905 40.7682C111.982 40.6886 112.069 40.6095 112.168 40.5292L112.184 40.5159L112.2 40.5021C114.484 38.5402 117.947 38.6287 120.169 40.7852" fill="black"/>
<path d="M117.275 112.498C106.76 126.745 86.6038 129.72 72.2527 119.128C57.9015 108.537 54.804 88.3992 65.3188 74.1523C75.8336 59.9053 95.9895 56.9297 110.341 67.5214C124.692 78.1131 127.789 98.2507 117.275 112.498Z" fill="white" stroke="black" stroke-width="1.57979"/>
<rect x="101.282" y="75.0215" width="10.6337" height="14.3218" rx="5.31684" transform="rotate(38.8959 101.282 75.0215)" fill="#FFC414" stroke="black" stroke-width="1.57979"/>
<rect x="86.416" y="64.0498" width="10.6337" height="14.3218" rx="5.31684" transform="rotate(38.8959 86.416 64.0498)" fill="#FFC414" stroke="black" stroke-width="1.57979"/>
</g>
<path d="M54.3882 54.0678C46.8617 51.2071 58.8824 26.0651 37.9119 27.4612C16.304 31.7472 37.0439 58.209 49.9873 60.5423C60.5236 62.4418 61.9147 56.9284 54.3882 54.0678Z" fill="white" stroke="#E4E4E4"/>
<ellipse opacity="0.1" cx="74.5658" cy="84.9193" rx="5.52928" ry="1.57979" transform="rotate(32.3651 74.5658 84.9193)" fill="#FF1414"/>
<ellipse opacity="0.1" cx="104.936" cy="100.82" rx="5.52928" ry="1.57979" transform="rotate(32.3651 104.936 100.82)" fill="#FF1414"/>
</svg>
